<?xml version="1.0" encoding="UTF-8" standalone="no"?>
<!-- Created with Inkscape (http://www.inkscape.org/) -->

<svg
   xmlns:dc="http://purl.org/dc/elements/1.1/"
   xmlns:cc="http://creativecommons.org/ns#"
   xmlns:rdf="http://www.w3.org/1999/02/22-rdf-syntax-ns#"
   xmlns:svg="http://www.w3.org/2000/svg"
   xmlns="http://www.w3.org/2000/svg"
   xmlns:sodipodi="http://sodipodi.sourceforge.net/DTD/sodipodi-0.dtd"
   xmlns:inkscape="http://www.inkscape.org/namespaces/inkscape"
   version="1.1"
   id="svg3713"
   width="1533.3333"
   height="133.33333"
   viewBox="0 0 1533.3333 133.33333"
   sodipodi:docname="brecon.png"
   inkscape:version="0.92.4 (5da689c313, 2019-01-14)">
  <metadata
     id="metadata3719">
    <rdf:RDF>
      <cc:Work
         rdf:about="">
        <dc:format>image/svg+xml</dc:format>
        <dc:type
           rdf:resource="http://purl.org/dc/dcmitype/StillImage" />
        <dc:title></dc:title>
      </cc:Work>
    </rdf:RDF>
  </metadata>
  <defs
     id="defs3717" />
  <sodipodi:namedview
     pagecolor="#ffffff"
     bordercolor="#666666"
     borderopacity="1"
     objecttolerance="10"
     gridtolerance="10"
     guidetolerance="10"
     inkscape:pageopacity="0"
     inkscape:pageshadow="2"
     inkscape:window-width="1366"
     inkscape:window-height="705"
     id="namedview3715"
     showgrid="false"
     inkscape:zoom="0.78978265"
     inkscape:cx="766.66663"
     inkscape:cy="66.666664"
     inkscape:window-x="-8"
     inkscape:window-y="-8"
     inkscape:window-maximized="1"
     inkscape:current-layer="svg3713" />
  <path
     style="fill:#000000;stroke-width:1.33333325"
     d="m 530.72348,128.69604 c -8.18258,-2.73663 -9.79095,-4.18493 -8.84278,-7.96275 1.36275,-5.42959 4.58859,-7.79247 10.01895,-7.33872 3.84756,0.3215 4.92112,1.01621 5.26022,3.40394 0.45698,3.21755 -1.15741,3.77278 -4.99619,1.71833 -1.64292,-0.87927 -3.12703,-0.74628 -4.72688,0.42356 -2.15139,1.57314 -2.16443,1.87286 -0.16826,3.86903 1.19008,1.19009 4.81487,2.56135 8.05506,3.04724 9.73617,1.46003 14.99639,-2.46163 22.13251,-16.50046 3.23122,-6.35673 7.28387,-13.864387 9.0059,-16.683673 1.72204,-2.819285 2.7055,-5.519285 2.1855,-5.999999 -0.52,-0.480715 -1.21752,-0.1114 -1.55004,0.820693 -0.82149,2.302731 -7.52692,5.638613 -11.3341,5.638613 -5.26134,0 -9.02956,-3.615617 -9.02956,-8.663861 0,-3.569463 1.32777,-5.897497 6.35272,-11.138413 6.62724,-6.912079 12.85418,-9.355157 19.5568,-7.672908 1.79321,0.450067 3.63257,0.216101 4.08745,-0.519924 0.45489,-0.736024 2.30309,-1.338227 4.10712,-1.338227 2.89269,0 3.174,0.42252 2.38208,3.577799 -0.49389,1.967789 -1.70163,5.117789 -2.68385,7 -0.98224,1.882211 -1.78959,4.159569 -1.79411,5.060796 -0.004,0.901228 -1.481,6.001228 -3.28107,11.333333 -2.94576,8.725861 -4.55726,12.278911 -11.39381,25.121141 -6.06039,11.38424 -20.73757,17.0205 -33.34366,12.80446 z m 31.93414,-42.385365 c 2.09871,-1.551643 4.62441,-2.548907 5.61268,-2.216141 2.25997,0.760973 5.21215,-12.099356 3.35825,-14.629356 -1.73272,-2.364652 -3.06693,-2.085924 -6.22105,1.299631 -2.43957,2.618564 -9.34036,15.634854 -9.34036,17.617802 0,1.562205 2.91427,0.646011 6.59048,-2.071936 z M 55.144934,98.433925 C 44.792232,93.125873 44.102788,92.95568 41.19718,94.990847 c -3.096775,2.169065 -10.488148,2.977362 -10.433704,1.140997 0.01631,-0.55 1.202964,-2.5 2.637019,-4.333333 3.695096,-4.723911 3.376757,-5.656137 -3,-8.785219 -11.072194,-5.433138 -14.207154,-6.007626 -17.084081,-3.1307 -3.303756,3.303756 -3.30536,7.435278 -0.0036,9.20234 3.988802,2.134743 6.93538,1.642549 7.701322,-1.286421 0.783224,-2.995053 4.386332,-3.676788 4.386332,-0.829927 0,2.74284 -3.175579,4.863796 -8.600304,5.744108 -3.889464,0.631173 -5.481603,0.180741 -8.1189727,-2.29694 -4.352346,-4.088816 -4.143297,-8.626461 0.616713,-13.386471 4.2274777,-4.227478 10.3430817,-5.226064 11.6203957,-1.897436 0.42211,1.1 2.053279,2.021261 3.62482,2.047246 1.571541,0.02599 4.357348,0.904725 6.190681,1.952753 5.504222,3.146498 7.611045,2.491358 8.578891,-2.667701 0.869702,-4.635916 9.494818,-22.093761 14.264054,-28.871458 1.369713,-1.946538 2.490388,-4.756106 2.490388,-6.243484 0,-1.53331 1.154705,-3.070812 2.666667,-3.550689 1.495656,-0.474703 2.666666,-2.017378 2.666666,-3.513033 0,-2.1451 -0.586764,-2.489391 -3,-1.760291 -1.65,0.498507 -3.57,1.43894 -4.266666,2.089851 -2.136055,1.995761 -4.954059,1.314299 -4.491761,-1.08622 0.258776,-1.343713 3.426474,-3.416451 7.764431,-5.080544 5.91623,-2.269535 7.253111,-3.33698 6.941943,-5.542853 -0.2443,-1.731832 0.853983,-3.544068 3,-4.950193 5.96444,-3.908034 4.190035,-5.239266 -6.01059,-4.509415 -7.322071,0.523891 -10.102947,1.336419 -12.598825,3.681174 -3.33024,3.128599 -7.338504,2.879658 -7.338504,-0.45577 0,-4.882254 21.450167,-9.272989 31.333332,-6.413766 2.655546,0.768256 5.120379,0.610908 7.333334,-0.468139 1.833333,-0.893943 7.30601,-2.016364 12.161505,-2.49427 7.579948,-0.746063 9.276624,-0.50128 11.999994,1.731258 3.04925,2.499696 3.07966,2.693673 0.78686,5.019528 -1.98817,2.016824 -4.48384,2.400752 -14.999996,2.307564 -12.229862,-0.108373 -12.61503,-0.02011 -12.61503,2.89095 0,1.651506 -0.364193,3.951808 -0.809319,5.111787 -0.659552,1.718764 0.236578,2.109049 4.842564,2.109049 4.753539,0 6.365672,0.756837 10.142652,4.761603 5.074663,5.380709 6.085323,12.599789 2.342903,16.735121 -1.984236,2.192556 -1.933448,2.645957 0.66667,5.951466 1.54799,1.967955 2.81453,4.577184 2.81453,5.798288 0,1.221103 0.68043,2.900619 1.51206,3.732255 1.898686,1.898687 2.683416,10.743069 1.04315,11.756817 -0.67204,0.415338 -1.22188,2.277129 -1.22188,4.13731 0,1.860183 -1.18227,5.0425 -2.62727,7.071816 -1.445,2.029316 -2.25096,4.06598 -1.79102,4.525921 1.15111,1.151112 -5.825492,7.429135 -10.0919,9.081374 -12.624129,4.88892 -16.910777,4.65553 -29.0787,-1.583225 z m 22.051251,-1.513369 c 1.720964,-0.634784 3.440942,-2.346929 3.822176,-3.804765 0.381232,-1.457838 1.223172,-2.650614 1.870974,-2.650614 0.647804,0 1.180068,-1.049999 1.182809,-2.333333 0.0028,-1.283333 1.23178,-4.345585 2.731196,-6.805004 1.499418,-2.459417 2.737838,-6.059417 2.752047,-7.999999 0.05638,-7.700646 -0.872183,-17.356731 -1.753876,-18.238423 -0.512357,-0.512358 -2.837511,-0.267142 -5.167005,0.544924 -5.851801,2.03995 -14.567345,0.539042 -14.567345,-2.508649 0,-3.964226 3.989438,-5.990717 11.872057,-6.030574 4.103701,-0.02075 8.169333,-0.480239 9.034736,-1.021084 2.085817,-1.303564 1.334702,-7.636692 -1.124423,-9.48072 -1.071195,-0.803257 -2.341613,-2.510469 -2.823152,-3.793803 -0.599332,-1.597257 -2.31528,-2.333333 -5.439494,-2.333333 -3.756248,0 -4.712031,0.589927 -5.400583,3.333333 -0.460137,1.833334 -1.399889,3.333333 -2.088339,3.333333 -1.600093,0 -8.030802,10.906731 -8.030802,13.620551 0,1.129112 -0.943853,2.836258 -2.097451,3.79366 -1.153597,0.957401 -3.323505,4.180868 -4.822016,7.163258 -1.49851,2.982392 -3.704657,6.535283 -4.902549,7.895312 -1.19789,1.360031 -2.259648,3.760031 -2.359458,5.333333 -0.09981,1.573304 -0.987115,4.825815 -1.971786,7.227803 -1.887698,4.604814 -0.905264,7.880334 2.909035,9.698969 16.958499,8.085709 17.748395,8.237139 26.373249,5.055825 z m 3.939038,-45.825131 c -0.83977,-0.825902 -7.734729,1.066152 -7.734729,2.122497 0,0.609695 1.830628,0.470378 4.068063,-0.309597 2.237433,-0.779973 3.887433,-1.595779 3.666666,-1.8129 z M 101.40048,11.658002 c 2.50862,-1.394451 -7.066156,-1.588095 -13.499986,-0.273028 -4.308883,0.880729 -4.358432,0.95698 -1.166667,1.795385 3.743575,0.983351 11.631897,0.164567 14.666653,-1.522357 z M 1274.7338,98.525567 c -4.9646,-1.554512 -16.4142,-7.913068 -17.595,-9.771451 -3.5494,-5.585836 2.5422,-18.618965 10.6658,-22.819855 2.0845,-1.077955 4.5698,-2.89948 5.5229,-4.047833 2.7734,-3.341728 12.3291,-2.739675 15.8405,0.998018 7.4233,7.901711 -1.1636,19.580732 -14.3966,19.580732 -4.5172,0 -5.6868,-0.567662 -6.9693,-3.382587 -1.2583,-2.761654 -1.1497,-3.774148 0.5918,-5.515658 2.6711,-2.671068 6.3399,-1.403902 6.3399,2.189732 0,2.667863 2.0151,3.386471 5.6187,2.003645 1.2141,-0.465867 1.6599,-2.220852 1.3149,-5.175851 -0.2871,-2.459041 0.1354,-4.877261 0.9389,-5.373821 2.4335,-1.503981 1.6405,-3.412127 -1.418,-3.412127 -3.8736,0 -16.5805,9.753459 -19.13,14.683611 -2.4568,4.750953 -1.4365,10.139205 2.2985,12.138087 4.2101,2.253168 19.2113,3.968707 22.7936,2.606688 4.4999,-1.710856 11.2919,-12.574361 12.3743,-19.792095 1.0764,-7.178027 -0.4289,-12.172052 -7.2685,-24.114983 -10.867,-18.975111 -9.6475,-17.905829 -16.8088,-14.738028 -9.6165,4.253833 -16.587,4.586642 -26.5593,1.268089 -10.0092,-3.330862 -10.761,-4.98313 -4.9236,-10.820598 3.457,-3.456952 4.818,-3.897436 12.0419,-3.897436 8.9597,0 11.9061,2.462488 7.2279,6.040749 -2.8407,2.172811 -6.6622,1.914575 -6.1791,-0.417555 0.2183,-1.053828 -1.0653,-1.292725 -4,-0.744497 -6.3301,1.182493 -7.0712,2.569128 -2.849,5.330505 7.0825,4.632083 28.1566,1.292279 33.5107,-5.310745 3.6371,-4.485524 12.8336,-8.898986 18.5317,-8.893473 5.4384,0.0052 13.3846,3.979481 14.6737,7.338961 1.2982,3.382973 -0.6346,8.127513 -3.9209,9.624857 -2.0094,0.915535 -5.2425,1.018146 -9.032,0.286655 -8.465,-1.634005 -8.4601,-1.636649 -4.8798,2.618256 1.7927,2.130542 4.9009,7.980542 6.9071,13 2.0062,5.019457 4.192,9.786818 4.8573,10.594135 2.1027,2.551546 2.8775,13.017895 1.3763,18.592756 -3.4504,12.813626 -24.1812,23.50242 -37.4965,19.333117 z m 36.0139,-70.470201 c 2.7948,-2.263108 2.8387,-2.547086 0.7211,-4.664665 -3.8369,-3.836928 -8.7907,-4.30189 -13.9506,-1.309404 -6.6297,3.844951 -6.4617,5.22139 0.8228,6.737833 9.1049,1.895406 9.1242,1.89422 12.4067,-0.763764 z M 593.52666,97.301947 c -5.86549,-1.641274 -6.20045,-4.32559 -1.69961,-13.620433 2.277,-4.702318 4.52704,-10.197559 5.00008,-12.211644 0.85797,-3.653032 0.85077,-3.657123 -2.94996,-1.674881 -4.76866,2.48706 -7.14336,2.53925 -7.14336,0.156994 0,-2.023229 11.11412,-6.153472 16.55846,-6.153472 2.55751,0 3.60904,0.869828 4.27914,3.539703 0.49828,1.985271 0.22506,4.473741 -0.62215,5.666667 -2.90731,4.093653 -6.70329,12.277479 -7.61035,16.407231 l -0.915,4.165975 4.98966,-2.943968 c 6.81968,-4.023711 7.71449,-2.269632 1.66864,3.270985 -5.10124,4.674933 -6.02136,4.945409 -11.55555,3.396843 z m 68.71245,-0.810823 c -2.84157,-2.151932 -2.64384,-4.163956 1.83698,-18.692613 1.58318,-5.133333 3.21406,-10.441642 3.62418,-11.796244 0.62932,-2.078644 0.35206,-2.24603 -1.77706,-1.072844 -1.38751,0.764536 -4.67992,1.732623 -7.3165,2.151303 -4.24084,0.673435 -4.99865,1.412335 -6.57024,6.406179 -0.97708,3.104717 -2.52812,6.546037 -3.44677,7.647379 -0.91865,1.101342 -2.30348,3.667867 -3.07739,5.70339 -1.32652,3.489012 -1.24893,3.616305 1.35474,2.222865 4.11193,-2.200639 4.75156,-0.37572 1.19516,3.409896 -3.78803,4.032166 -8.70523,4.317173 -10.68428,0.619274 l -1.44971,-2.708801 -3.44368,2.708801 c -4.16292,3.274547 -8.10484,3.44603 -12.26309,0.533474 -2.68291,-1.879179 -2.98888,-2.906032 -2.24747,-7.542603 1.16863,-7.308142 5.90351,-14.834407 11.88713,-18.895002 4.40984,-2.9926 6.0681,-3.32304 14.59066,-2.907469 13.99177,0.682254 23.71952,-2.678827 31.1374,-10.758431 3.15301,-3.434286 6.12554,-5.851377 6.6056,-5.371311 0.48006,0.480065 -0.084,3.264134 -1.25338,6.186819 l -2.12624,5.313974 5.6145,0.408009 c 4.2654,0.309969 5.72979,1.015217 6.09438,2.935023 0.40825,2.149699 -0.10787,2.40945 -3.45692,1.739649 -6.81125,-1.362252 -9.51165,0.162854 -11.01245,6.219501 -0.75145,3.032609 -2.74237,8.513836 -4.42425,12.180502 -3.35526,7.314759 -3.27092,11.333333 0.23782,11.333333 4.02316,0 7.86606,-3.807665 8.78463,-8.704126 0.93856,-5.002944 3.93411,-7.309383 6.35241,-4.89108 1.75996,1.759961 -5.58202,13.411801 -9.99746,15.866138 -3.96459,2.203723 -11.70479,2.075327 -14.7687,-0.244985 z m -21.87489,-19.35928 c 4.0506,-8.160355 4.58309,-10.083042 2.89455,-10.451407 -5.55899,-1.212722 -7.91099,1.019522 -12.71348,12.066138 -2.64264,6.078564 -4.5302,11.527323 -4.19459,12.10835 0.33563,0.58103 2.50912,-0.01897 4.83,-1.333333 2.95889,-1.675686 5.70295,-5.377768 9.18352,-12.389748 z M 105.40048,95.627887 c 0,-1.119787 2.85101,-6.419515 7.79819,-14.496043 1.57218,-2.566666 2.86076,-6.276537 2.8635,-8.244155 0.004,-3.116124 -0.51329,-3.562754 -4.0138,-3.463226 -9.17453,0.260852 -4.46386,-3.742669 5.29458,-4.499778 4.94251,-0.383464 6.15887,0.0051 7.35018,2.347566 l 1.42756,2.807072 2.36881,-3.140405 c 1.30285,-1.727224 3.10719,-3.140407 4.00965,-3.140407 1.80079,0 8.90133,7.554516 8.90133,9.470438 0,2.056756 -5.6683,1.306385 -8.3304,-1.10278 -2.42164,-2.191556 -2.65885,-2.144818 -5.07534,1 -1.39423,1.814456 -2.5483,4.117315 -2.56461,5.117469 -0.0163,1.000154 -1.21927,4.000154 -2.67325,6.666666 -1.45398,2.666514 -3.21872,6.444527 -3.92164,8.395584 -1.13751,3.157288 -1.94646,3.537272 -7.3564,3.455487 -3.3431,-0.05054 -6.07836,-0.57861 -6.07836,-1.173488 z m 41.65583,0.140761 c -5.72447,-2.330135 -6.43284,-6.821412 -2.86632,-18.173124 2.56176,-8.153671 4.01876,-10.71375 7.21049,-12.669437 5.0053,-3.066917 12.38879,-3.157473 16.70332,-0.204861 4.58747,3.139384 5.25295,4.389807 5.27627,9.914025 0.0237,5.610936 -2.41663,8.212436 -6.85205,7.304637 -1.72015,-0.352062 -5.60651,-0.973632 -8.63638,-1.381264 -5.12304,-0.689246 -5.62173,-0.468572 -7.12104,3.151078 -3.78588,9.139909 3.13328,12.44729 12.60014,6.022909 6.28201,-4.263083 7.84352,-3.094513 2.62804,1.966708 -4.3334,4.205222 -13.67726,6.212524 -18.94247,4.069329 z m 19.40887,-22.038269 c 0.52548,-5.370725 -3.61606,-9.467646 -7.4802,-7.399618 -2.0337,1.088402 -5.5845,7.599724 -5.5845,10.240646 0,0.689524 5.96063,1.587655 9.33334,1.406321 2.69186,-0.144729 3.40993,-0.962082 3.73136,-4.247349 z m 16.60197,19.327714 c -5.19723,-4.871098 -5.68572,-10.297419 -1.55375,-17.259582 6.55756,-11.049146 15.99354,-15.484787 24.42726,-11.482722 2.49122,1.182164 5.78882,2.149389 7.328,2.149389 3.35417,0 3.78488,3.705179 0.57393,4.937335 -1.22351,0.469502 -3.77351,-0.02717 -5.66667,-1.103723 -1.89316,-1.076549 -5.22322,-1.92952 -7.40014,-1.895488 -3.45254,0.05397 -4.50298,1.083603 -8.22484,8.061876 -4.72583,8.860633 -5.60147,14.619137 -2.40926,15.844101 2.64459,1.014825 11.12335,-2.489987 13.36572,-5.524913 1.34115,-1.815143 2.06852,-1.969242 3.34682,-0.709031 2.21701,2.185669 -0.27696,5.092384 -7.26694,8.469572 -7.48609,3.616885 -11.45593,3.2596 -16.52013,-1.486814 z m 40.8412,1.115587 c -2.11267,-1.284785 -3.8412,-3.430115 -3.8412,-4.767398 0,-1.337284 -0.88092,-3.596103 -1.9576,-5.019598 -3.24183,-4.286078 -2.39221,-8.264049 2.81377,-13.174494 6.16964,-5.819384 12.28367,-8.5508 13.76717,-6.150432 0.60564,0.979948 2.15858,1.334948 3.69982,0.845776 3.54544,-1.125279 10.75233,5.601804 11.84285,11.054393 0.62005,3.100233 0.0588,5.027253 -2.34192,8.040424 -1.73659,2.179628 -4.18875,5.438527 -5.44924,7.242 -3.03223,4.338385 -12.88561,5.36411 -18.53365,1.929329 z m 17.49468,-8.034598 c 5.67092,-6.020534 6.37381,-8.404472 3.59748,-12.201332 -1.6121,-2.204673 -1.84655,-2.121928 -3.35247,1.183227 -1.78932,3.927129 -4.64977,3.874271 -5.39104,-0.09963 -0.95889,-5.140607 -2.87557,-6.057533 -6.80841,-3.257103 -3.46496,2.467276 -3.93455,4.317826 -2.92347,11.521112 0.36623,2.609191 5.66559,8.513152 7.64135,8.513152 1.04817,0 4.30462,-2.546743 7.23656,-5.659429 z m 12.07209,9.20073 c -2.73876,-2.738751 -1.62571,-5.21837 1.94063,-4.323279 3.81624,0.957816 3.98286,0.669302 8.65302,-14.98266 1.60246,-5.370552 2.60902,-10.069164 2.23682,-10.441362 -0.37219,-0.372196 -1.88866,-0.02811 -3.36992,0.76464 -3.08488,1.650972 -8.21632,1.928112 -8.17212,0.44136 0.0164,-0.55 4.25418,-2.392062 9.41741,-4.093473 7.31812,-2.411498 9.80389,-2.74806 11.27559,-1.52666 1.4259,1.183399 1.54204,2.213059 0.47456,4.207669 -0.77735,1.45247 -1.13659,2.917611 -0.79834,3.255868 0.33826,0.338259 4.59666,-1.573569 9.46311,-4.248504 11.23084,-6.173249 13.45115,-5.584417 12.40028,3.288588 -0.42301,3.571628 -2.25279,10.008964 -4.06616,14.305191 -1.81339,4.296226 -3.10779,8.002894 -2.87647,8.237038 0.23134,0.234144 1.65175,-0.343142 3.15647,-1.28286 4.7024,-2.936693 5.07059,0.218512 0.50185,4.300669 -5.11533,4.57055 -7.06053,4.81528 -10.25112,1.289719 -2.83918,-3.137272 -2.32282,-9.039696 1.80376,-20.61835 1.54563,-4.336807 2.63859,-8.056739 2.42882,-8.266515 -0.20978,-0.209776 -3.11424,1.396272 -6.45436,3.568994 -6.47574,4.212406 -8.24055,6.785865 -10.45763,15.249293 -2.02161,7.717281 -5.21704,11.140789 -10.97287,11.756083 -2.70896,0.289584 -5.55896,-0.107066 -6.33333,-0.881449 z M 422.57501,94.17368 c -2.11267,-1.284785 -3.8412,-3.430115 -3.8412,-4.767398 0,-1.337284 -0.88092,-3.596103 -1.9576,-5.019598 -3.24183,-4.286078 -2.39221,-8.264049 2.81377,-13.174494 6.16964,-5.819384 12.28367,-8.5508 13.76718,-6.150432 0.60564,0.979948 2.15857,1.334948 3.69981,0.845776 3.54544,-1.125279 10.75233,5.601804 11.84285,11.054393 0.62006,3.100233 0.0588,5.027253 -2.34192,8.040424 -1.73658,2.179628 -4.18874,5.438527 -5.44924,7.242 -3.03222,4.338385 -12.88561,5.36411 -18.53365,1.929329 z m 17.49468,-8.034598 c 5.67092,-6.020534 6.37381,-8.404472 3.59748,-12.201332 -1.61209,-2.204673 -1.84655,-2.121928 -3.35247,1.183227 -1.78932,3.927129 -4.64977,3.874271 -5.39104,-0.09963 -0.95889,-5.140607 -2.87557,-6.057533 -6.80841,-3.257103 -3.46496,2.467276 -3.93455,4.317826 -2.92347,11.521112 0.36623,2.609191 5.66559,8.513152 7.64135,8.513152 1.04817,0 4.30463,-2.546743 7.23656,-5.659429 z m 73.65328,9.629566 c -5.72447,-2.330135 -6.43284,-6.821412 -2.86632,-18.173124 2.56176,-8.153671 4.01876,-10.71375 7.21049,-12.669437 5.0053,-3.066917 12.38879,-3.157473 16.70332,-0.204861 4.58747,3.139384 5.25295,4.389807 5.27627,9.914025 0.0237,5.610936 -2.41663,8.212436 -6.85205,7.304637 -1.72015,-0.352062 -5.60651,-0.973632 -8.63638,-1.381264 -5.12304,-0.689246 -5.62173,-0.468572 -7.12104,3.151078 -3.78588,9.139909 3.13328,12.44729 12.60014,6.022909 6.28201,-4.263083 7.84351,-3.094513 2.62804,1.966708 -4.3334,4.205222 -13.67726,6.212524 -18.94247,4.069329 z m 19.40887,-22.038269 c 0.52548,-5.370725 -3.61606,-9.467646 -7.4802,-7.399618 -2.0337,1.088402 -5.5845,7.599724 -5.5845,10.240646 0,0.689524 5.96063,1.587655 9.33334,1.406321 2.69186,-0.144729 3.40993,-0.962082 3.73136,-4.247349 z m 163.25779,22.038269 c -5.72447,-2.330135 -6.43284,-6.821412 -2.86632,-18.173124 2.56176,-8.153671 4.01876,-10.71375 7.21049,-12.669437 5.0053,-3.066917 12.38879,-3.157473 16.70332,-0.204861 4.58747,3.139384 5.25295,4.389807 5.27627,9.914025 0.0237,5.610936 -2.41663,8.212436 -6.85205,7.304637 -1.72015,-0.352062 -5.60651,-0.973632 -8.63638,-1.381264 -5.12304,-0.689246 -5.62173,-0.468572 -7.12104,3.151078 -3.78588,9.139909 3.13328,12.44729 12.60014,6.022909 6.28201,-4.263083 7.84352,-3.094513 2.62804,1.966708 -4.3334,4.205222 -13.67726,6.212524 -18.94247,4.069329 z M 715.7985,73.730379 c 0.52548,-5.370725 -3.61606,-9.467646 -7.4802,-7.399618 -2.0337,1.088402 -5.5845,7.599724 -5.5845,10.240646 0,0.689524 5.96063,1.587655 9.33334,1.406321 2.69186,-0.144729 3.40993,-0.962082 3.73136,-4.247349 z m 122.04974,21.311842 c -0.44102,-1.149293 -0.12213,-2.769293 0.70852,-3.6 0.83071,-0.830708 1.51038,-2.964257 1.51038,-4.741221 0,-1.776964 1.71876,-6.606964 3.81946,-10.733333 2.10071,-4.126369 4.7492,-9.602489 5.88553,-12.169156 7.72098,-17.439535 8.88296,-20.381991 8.3741,-21.205366 -0.7893,-1.277093 0.60256,-3.052746 5.10072,-6.507265 4.83865,-3.716009 17.37021,-4.083558 24.46362,-0.717516 4.4857,2.128607 4.80102,2.116311 6.53484,-0.25484 1.00195,-1.370246 1.82172,-3.62668 1.82172,-5.014296 0,-1.425425 0.72503,-2.281534 1.66667,-1.968005 3.0404,1.012328 2.59992,5.06606 -1.07381,9.882585 -3.45376,4.528115 -3.93892,4.725368 -10.15348,4.128227 -4.2118,-0.404702 -7.61963,-1.654139 -9.60895,-3.523007 -3.09773,-2.91017 -7.45545,-2.723964 -7.53879,0.322136 -0.0229,0.838208 -1.51745,4.524015 -3.32114,8.190681 -1.8037,3.666667 -3.28494,7.589801 -3.29164,8.718077 -0.007,1.128276 -1.20312,4.387348 -2.6587,7.242382 -1.45557,2.855034 -2.35134,5.486135 -1.99058,5.846893 0.36076,0.360758 3.2674,-0.648314 6.45921,-2.242382 3.19181,-1.594066 6.96757,-2.898304 8.39059,-2.898304 5.27204,0 7.73116,6.060215 3.78729,9.333334 -1.1,0.912918 -2.00224,2.936385 -2.00499,4.496593 -0.003,1.560206 -1.20273,4.801241 -2.66666,7.2023 -3.47912,5.706277 -3.44122,7.47879 0.1192,5.573324 3.7981,-2.032684 4.83977,-0.536316 1.8932,2.719607 -2.68795,2.970128 -8.60454,3.544388 -11.07408,1.074842 -2.64388,-2.64388 -1.79158,-9.263119 2.28337,-17.733333 2.1168,-4.4 3.70025,-8.158759 3.51877,-8.352796 -0.18148,-0.194037 -3.14436,1.2202 -6.58417,3.142749 -5.28881,2.955976 -6.86987,4.853346 -10.24267,12.291915 -2.19366,4.838002 -4.9635,9.873765 -6.1552,11.190583 -2.67052,2.950892 -6.89491,3.11229 -7.97233,0.304592 z m 53.49163,-1.183104 c -3.77208,-3.772074 -4.39094,-10.739194 -1.31514,-14.805766 2.9969,-3.962261 2.61084,-7.153838 -0.75876,-6.272669 -2.19549,0.574135 -2.69825,0.198244 -2.32528,-1.738479 0.30182,-1.56714 2.10319,-2.803818 4.9247,-3.380877 2.44684,-0.500433 5.11322,-1.574291 5.92528,-2.386347 0.81205,-0.812057 3.15646,-1.476468 5.2098,-1.476468 2.84444,0 3.73333,0.63492 3.73333,2.666667 0,1.466667 -0.47465,2.666667 -1.05479,2.666667 -1.19166,0 -8.27854,13.471839 -8.27854,15.737146 0,2.046176 2.92456,8.265165 3.88069,8.25217 0.43228,-0.0059 4.42427,-3.455874 8.87107,-7.666666 5.1988,-4.922877 9.00669,-9.933038 10.66666,-14.034474 1.7089,-4.222282 3.5701,-6.631022 5.50579,-7.125526 6.41279,-1.638235 7.39417,2.284988 2.40912,9.630867 -1.83333,2.701568 -3.35241,5.878213 -3.37573,7.059212 -0.0233,1.180998 -0.92334,3.311948 -2,4.735444 -4.18044,5.527022 -1.45042,6.390077 4.4659,1.411826 4.09843,-3.448596 6.90983,-4.28193 6.90983,-2.04816 0,0.706846 -2.55,3.691843 -5.66667,6.633328 -8.04812,7.595759 -18.19282,7.361824 -16.71185,-0.385372 0.5632,-2.946244 0.32517,-3.241614 -1.72716,-2.143238 -1.30921,0.70067 -2.74089,2.409799 -3.18151,3.798066 -1.58817,5.003861 -11.44168,5.537716 -16.10674,0.872649 z m 46.0606,1.76877 c 0,-1.119787 2.851,-6.419515 7.79818,-14.496043 1.57219,-2.566666 2.86076,-6.276537 2.8635,-8.244155 0.004,-3.116124 -0.5133,-3.562754 -4.0138,-3.463226 -9.17452,0.260852 -4.46386,-3.742669 5.29458,-4.499778 4.94251,-0.383464 6.15887,0.0051 7.35019,2.347566 l 1.42755,2.807072 2.36881,-3.140405 c 1.30285,-1.727224 3.10719,-3.140407 4.00965,-3.140407 1.80079,0 8.90134,7.554516 8.90134,9.470438 0,2.056756 -5.66831,1.306385 -8.3304,-1.10278 -2.42164,-2.191556 -2.65886,-2.144818 -5.07535,1 -1.39423,1.814456 -2.54829,4.117315 -2.5646,5.117469 -0.0163,1.000154 -1.21928,4.000154 -2.67325,6.666666 -1.45399,2.666514 -3.21872,6.444527 -3.92164,8.395584 -1.13751,3.157288 -1.94646,3.537272 -7.3564,3.455487 -3.34311,-0.05054 -6.07836,-0.57861 -6.07836,-1.173488 z m 41.66666,-2.569794 c -5.19722,-4.871098 -5.68572,-10.297419 -1.55374,-17.259582 6.55756,-11.049146 15.99353,-15.484787 24.42721,-11.482722 2.4912,1.182164 5.7888,2.149389 7.328,2.149389 3.3542,0 3.7849,3.705179 0.574,4.937335 -1.2236,0.469502 -3.7736,-0.02717 -5.6667,-1.103723 -1.8932,-1.076549 -5.22316,-1.92952 -7.40016,-1.895488 -3.45251,0.05397 -4.50295,1.083603 -8.22482,8.061876 -4.72583,8.860633 -5.60147,14.619137 -2.40925,15.844101 2.64458,1.014825 11.12337,-2.489987 13.36577,-5.524913 1.34106,-1.815143 2.06846,-1.969242 3.34676,-0.709031 2.217,2.185669 -0.277,5.092384 -7.26696,8.469572 -7.48607,3.616885 -11.45591,3.2596 -16.52011,-1.486814 z m 32.11447,1.984128 c -0.4411,-1.149293 -0.1222,-2.769293 0.7085,-3.6 0.8307,-0.830708 1.5103,-2.964257 1.5103,-4.741221 0,-1.776964 1.7188,-6.606964 3.8195,-10.733333 2.1007,-4.126369 4.7492,-9.602489 5.8855,-12.169156 7.721,-17.439535 8.883,-20.381991 8.3741,-21.205366 -0.7893,-1.277093 0.6026,-3.052746 5.1008,-6.507265 4.8386,-3.716009 17.3702,-4.083558 24.4636,-0.717516 4.4857,2.128607 4.801,2.116311 6.5348,-0.25484 1.002,-1.370246 1.8217,-3.62668 1.8217,-5.014296 0,-1.425425 0.7251,-2.281534 1.6667,-1.968005 3.0404,1.012328 2.5999,5.06606 -1.0738,9.882585 -3.4538,4.528115 -3.9389,4.725368 -10.1535,4.128227 -4.2118,-0.404702 -7.6196,-1.654139 -9.6089,-3.523007 -3.0978,-2.91017 -7.4555,-2.723964 -7.5388,0.322136 -0.023,0.838208 -1.5175,4.524015 -3.3212,8.190681 -1.8037,3.666667 -3.2849,7.589801 -3.2916,8.718077 -0.01,1.128276 -1.2031,4.387348 -2.6587,7.242382 -1.4556,2.855034 -2.3513,5.486135 -1.9906,5.846893 0.3608,0.360758 3.2674,-0.648314 6.4592,-2.242382 3.1918,-1.594066 6.9676,-2.898304 8.3906,-2.898304 5.2721,0 7.7312,6.060215 3.7873,9.333334 -1.1,0.912918 -2.0022,2.936385 -2.005,4.496593 0,1.560206 -1.2027,4.801241 -2.6666,7.2023 -3.4792,5.706277 -3.4413,7.47879 0.1192,5.573324 3.7981,-2.032684 4.8397,-0.536316 1.8932,2.719607 -2.688,2.970128 -8.6046,3.544388 -11.0741,1.074842 -2.6439,-2.64388 -1.7916,-9.263119 2.2834,-17.733333 2.1168,-4.4 3.7002,-8.158759 3.5187,-8.352796 -0.1815,-0.194037 -3.1443,1.2202 -6.5841,3.142749 -5.2889,2.955976 -6.8699,4.853346 -10.2427,12.291915 -2.1937,4.838002 -4.9635,9.873765 -6.1552,11.190583 -2.6705,2.950892 -6.8949,3.11229 -7.9723,0.304592 z m 107.6268,0.297591 c -2.7387,-2.738751 -1.6257,-5.21837 1.9406,-4.323279 3.8163,0.957816 3.9829,0.669302 8.6531,-14.98266 1.6024,-5.370552 2.609,-10.069164 2.2368,-10.441362 -0.3722,-0.372196 -1.9609,0.01053 -3.5304,0.850519 -1.5695,0.839981 -4.1709,1.42218 -5.7809,1.293772 -6.2245,-0.496456 -7.1847,0.118107 -8.9507,5.728376 -0.981,3.116667 -2.5352,6.567764 -3.4539,7.669106 -0.9187,1.101342 -2.3035,3.667867 -3.0774,5.70339 -1.3265,3.489012 -1.2489,3.616305 1.3547,2.222865 4.112,-2.200639 4.7516,-0.37572 1.1952,3.409896 -3.788,4.032166 -8.7052,4.317173 -10.6843,0.619274 l -1.4497,-2.708801 -3.4437,2.708801 c -4.1629,3.274547 -8.1048,3.44603 -12.2631,0.533474 -2.6829,-1.879179 -2.9888,-2.906032 -2.2474,-7.542603 1.1655,-7.288569 5.8994,-14.831646 11.8369,-18.860902 4.6352,-3.145575 5.7664,-3.314757 19.2243,-2.875372 11.8864,0.388076 15.4831,0.01385 21.3143,-2.217638 5.6557,-2.164295 7.4007,-2.364466 9.005,-1.032984 1.5184,1.260201 1.6551,2.277229 0.5766,4.292363 -0.7773,1.45247 -1.1366,2.917611 -0.7983,3.255868 0.3382,0.338259 4.5966,-1.573569 9.4631,-4.248504 11.2308,-6.173249 13.4511,-5.584417 12.4003,3.288588 -0.4231,3.571628 -2.2528,10.008964 -4.0662,14.305191 -1.8134,4.296226 -3.1078,8.002894 -2.8765,8.237038 0.2314,0.234144 1.6518,-0.343142 3.1565,-1.28286 4.7024,-2.936693 5.0706,0.218512 0.5018,4.300669 -5.1153,4.57055 -7.0605,4.81528 -10.2511,1.289719 -2.8392,-3.137272 -2.3228,-9.039696 1.8038,-20.61835 1.5456,-4.336807 2.6386,-8.056739 2.4288,-8.266515 -0.2098,-0.209776 -3.1142,1.396272 -6.4544,3.568994 -6.4757,4.212406 -8.2405,6.785865 -10.4576,15.249293 -2.0216,7.717281 -5.217,11.140789 -10.9729,11.756083 -2.7089,0.289584 -5.5589,-0.107066 -6.3333,-0.881449 z m -17.1109,-18.207968 c 4.0506,-8.160355 4.5831,-10.083042 2.8946,-10.451407 -5.559,-1.212722 -7.911,1.019522 -12.7135,12.066138 -2.6427,6.078564 -4.5302,11.527323 -4.1946,12.10835 0.3356,0.58103 2.5091,-0.01897 4.83,-1.333333 2.9589,-1.675686 5.7029,-5.377768 9.1835,-12.389748 z m 73.3865,18.512681 c -4.9187,-1.42081 -6.1568,-4.446821 -5.3049,-12.965726 0.5343,-5.343667 2.1608,-8.133848 8.4277,-14.457528 3.8968,-3.932164 11.4576,-5.317821 13.7757,-2.524656 1.4877,1.79251 1.3583,2.101896 -0.8788,2.101896 -3.8503,0 -6.6864,3.826027 -9.7472,13.149811 -2.7377,8.339465 -2.5967,10.850189 0.6095,10.850189 5.4518,0 10.5986,-8.87078 12.1933,-21.016014 0.2178,-1.65881 1.9361,-6.271654 3.8186,-10.250767 1.8824,-3.979113 3.4225,-8.195809 3.4225,-9.370436 0,-1.174626 1.2081,-4.503706 2.6847,-7.397955 3.9256,-7.694839 10.4451,-10.603748 23.1829,-10.343941 6.178,0.126013 10.1159,0.760686 10.09,1.626222 -0.107,3.585227 -6.6242,8.420421 -6.6242,4.914652 0,-0.644364 -1.8271,-1.928356 -4.0601,-2.853312 -6.0237,-2.495112 -10.0573,-0.08516 -13.9879,8.357412 -1.7926,3.850444 -3.2652,8.049088 -3.2723,9.33032 -0.01,1.281232 -2.0512,6.681232 -4.5422,11.999999 -7.9403,16.953964 -10.3439,24.001746 -8.7231,25.577732 1.052,1.022865 3.2972,-0.553143 7.9406,-5.573912 9.3054,-10.061554 13.3416,-9.138691 5.1678,1.181596 -6.6137,8.350473 -14.044,11.205032 -18.5505,7.126696 -1.9985,-1.808644 -2.6509,-1.809522 -6.105,-0.0083 -2.127,1.109308 -4.1673,1.966463 -4.534,1.904843 -0.3667,-0.06161 -2.609,-0.673104 -4.9831,-1.358854 z m 150.6498,-2.586432 c -5.1973,-4.871098 -5.6857,-10.297419 -1.5538,-17.259582 6.5576,-11.049146 15.9935,-15.484787 24.4272,-11.482722 2.4914,1.182164 5.789,2.149389 7.328,2.149389 3.3543,0 3.785,3.705179 0.574,4.937335 -1.2234,0.469502 -3.7734,-0.02717 -5.6666,-1.103723 -1.8932,-1.076549 -5.2232,-1.92952 -7.4002,-1.895488 -3.4525,0.05397 -4.503,1.083603 -8.2249,8.061876 -4.7258,8.860633 -5.6014,14.619137 -2.4092,15.844101 2.6445,1.014825 11.1233,-2.489987 13.3657,-5.524913 1.3411,-1.815143 2.0686,-1.969242 3.3468,-0.709031 2.2171,2.185669 -0.2769,5.092384 -7.2669,8.469572 -7.4861,3.616885 -11.4559,3.2596 -16.5201,-1.486814 z m 32.1144,1.984128 c -0.441,-1.149293 -0.1227,-2.769293 0.7085,-3.6 0.8307,-0.830708 1.5104,-2.964257 1.5104,-4.741221 0,-1.776964 1.7188,-6.606964 3.8195,-10.733333 2.1006,-4.126369 4.7492,-9.602489 5.8856,-12.169156 7.7209,-17.439535 8.8829,-20.381991 8.374,-21.205366 -0.7892,-1.277093 0.6025,-3.052746 5.1008,-6.507265 4.8385,-3.716009 17.3701,-4.083558 24.4636,-0.717516 4.4857,2.128607 4.8009,2.116311 6.5348,-0.25484 1.002,-1.370246 1.8217,-3.62668 1.8217,-5.014296 0,-1.425425 0.7251,-2.281534 1.6667,-1.968005 3.0404,1.012328 2.5998,5.06606 -1.0739,9.882585 -3.4537,4.528115 -3.9388,4.725368 -10.1535,4.128227 -4.2117,-0.404702 -7.6196,-1.654139 -9.6089,-3.523007 -3.0977,-2.91017 -7.4555,-2.723964 -7.5388,0.322136 -0.023,0.838208 -1.5175,4.524015 -3.3211,8.190681 -1.8037,3.666667 -3.2849,7.589801 -3.2917,8.718077 0,1.128276 -1.2031,4.387348 -2.6587,7.242382 -1.4556,2.855034 -2.3513,5.486135 -1.9905,5.846893 0.3607,0.360758 3.2673,-0.648314 6.4592,-2.242382 3.1919,-1.594066 6.9676,-2.898303 8.3905,-2.898303 5.2722,0 7.7312,6.060214 3.7874,9.333333 -1.1,0.912918 -2.0023,2.936385 -2.005,4.496593 0,1.560206 -1.2028,4.801241 -2.6666,7.2023 -3.4792,5.706277 -3.4412,7.47879 0.1186,5.573324 3.7982,-2.032684 4.8399,-0.536316 1.8932,2.719607 -2.6878,2.970128 -8.6044,3.544388 -11.074,1.074842 -2.6438,-2.64388 -1.7916,-9.263119 2.2834,-17.733333 2.1168,-4.4 3.7002,-8.158759 3.5188,-8.352796 -0.1815,-0.194037 -3.1444,1.2202 -6.5842,3.142749 -5.2888,2.955976 -6.8698,4.853346 -10.2426,12.291915 -2.1938,4.838002 -4.9635,9.873765 -6.1552,11.190583 -2.6706,2.950892 -6.895,3.11229 -7.9724,0.304592 z m 55.3934,-0.868541 c -2.1126,-1.284785 -3.8412,-3.430115 -3.8412,-4.767398 0,-1.337284 -0.8809,-3.596103 -1.9576,-5.019598 -3.2418,-4.286078 -2.3922,-8.264049 2.8138,-13.174494 6.1697,-5.819384 12.2837,-8.5508 13.7672,-6.150432 0.6056,0.979948 2.1585,1.334948 3.6998,0.845776 3.5455,-1.125279 10.7523,5.601804 11.8428,11.054393 0.62,3.100233 0.059,5.027253 -2.3418,8.040424 -1.7367,2.179628 -4.1888,5.438527 -5.4494,7.242 -3.0321,4.338385 -12.8856,5.36411 -18.5336,1.929329 z m 17.4947,-8.034598 c 5.6709,-6.020534 6.3739,-8.404472 3.5975,-12.201332 -1.6122,-2.204673 -1.8466,-2.121928 -3.3524,1.183227 -1.7894,3.927129 -4.6499,3.874271 -5.3911,-0.09963 -0.9589,-5.140607 -2.8756,-6.057533 -6.8084,-3.257103 -3.4649,2.467276 -3.9345,4.317826 -2.9235,11.521112 0.3662,2.609184 5.6656,8.513145 7.6414,8.513145 1.0481,0 4.3046,-2.546742 7.2365,-5.659429 z m 21.172,8.034598 c -2.1127,-1.284785 -3.8412,-3.430115 -3.8412,-4.767398 0,-1.337284 -0.8809,-3.596103 -1.9576,-5.019598 -3.2419,-4.286078 -2.3923,-8.264049 2.8137,-13.174494 6.1698,-5.819384 12.2838,-8.5508 13.7672,-6.150432 0.6056,0.979948 2.1586,1.334948 3.6999,0.845776 3.5455,-1.125279 10.7523,5.601804 11.8428,11.054393 0.62,3.100233 0.059,5.027253 -2.3419,8.040424 -1.7366,2.179628 -4.1888,5.438527 -5.4493,7.242 -3.0321,4.338385 -12.8856,5.36411 -18.5336,1.929329 z m 17.4947,-8.034598 c 5.6709,-6.020534 6.3738,-8.404472 3.5974,-12.201332 -1.6121,-2.204673 -1.8465,-2.121928 -3.3524,1.183227 -1.7893,3.927129 -4.6498,3.874271 -5.391,-0.09963 -0.959,-5.140607 -2.8756,-6.057533 -6.8084,-3.257103 -3.465,2.467276 -3.9346,4.317826 -2.9235,11.521112 0.3661,2.609184 5.6656,8.513145 7.6413,8.513145 1.0482,0 4.3047,-2.546742 7.2366,-5.659429 z M 376.73381,94.121093 c -8.37336,-2.917562 -20.44578,-9.253362 -22.98513,-12.06295 -3.38547,-3.745765 -5.99545,-15.247717 -5.90323,-26.014885 0.1028,-11.997007 5.3104,-20.235214 18.91988,-29.930194 3.23935,-2.307613 3.08739,-2.341058 -8.03152,-1.767776 -6.23333,0.321386 -13.64764,1.079836 -16.47625,1.685447 l -5.14291,1.101111 2.80958,2.539984 c 3.19805,2.891176 3.88761,10.126682 0.96509,10.126682 -1.01447,0 -2.17236,-1.253796 -2.57311,-2.786213 -0.52754,-2.017361 -1.42856,-2.564057 -3.26513,-1.981152 -3.53261,1.121208 -8.0572,-3.899752 -6.18659,-6.865288 3.5762,-5.669464 26.32671,-9.578626 41.06926,-7.056832 8.45094,1.445582 10.1768,1.393522 12.94233,-0.390401 5.12044,-3.302963 15.92665,-4.660461 25.38766,-3.189248 13.14216,2.043644 15.68867,5.758347 6.47475,9.445026 -4.56159,1.825183 -7.66193,1.941472 -21.53729,0.807826 -20.56568,-1.680256 -22.32672,-0.87699 -29.38276,13.402347 -4.60156,9.312219 -4.87201,10.543123 -4.23632,19.280601 0.97008,13.333233 5.82963,20.791981 18.42905,28.286086 7.33453,4.362559 17.7918,-1.548902 21.11321,-11.935237 1.95276,-6.106397 1.92595,-6.444416 -0.61897,-7.806416 -2.05919,-1.102044 -3.21293,-0.923333 -5.10737,0.791107 -2.29211,2.074331 -2.62976,2.032265 -5.32551,-0.663487 -1.58303,-1.58303 -2.55068,-3.731845 -2.15032,-4.775145 0.97821,-2.54918 8.65317,-2.436708 13.94739,0.204391 9.36341,4.671089 8.84477,12.728925 -1.5312,23.78921 -6.30848,6.724524 -7.49491,7.429134 -12.29347,7.300982 -2.92111,-0.07801 -7.11112,-0.769021 -9.31112,-1.535576 z m 35,-70.304374 c 0.91667,-0.01 1.66553,-0.468206 1.66415,-1.018206 -0.001,-0.55 -4.35139,-0.953434 -9.66667,-0.896519 -14.39773,0.154168 -17.41561,0.91098 -7.66415,1.92198 4.76667,0.494192 9.86667,0.698825 11.33334,0.454741 1.46666,-0.244085 3.41666,-0.451983 4.33333,-0.461996 z m 38.55556,71.092902 c -1.99659,-1.996584 -0.84012,-4.742706 1.7158,-4.074317 4.12147,1.077787 6.87627,-1.981777 8.20177,-9.109122 0.67452,-3.626886 2.35072,-8.994337 3.72491,-11.927671 1.37419,-2.933333 3.28271,-8.033333 4.24117,-11.333333 0.95847,-3.3 2.45536,-7.2 3.32643,-8.666666 0.87108,-1.466667 1.95612,-4.274969 2.41121,-6.240673 1.86712,-8.064757 16.44055,-17.726391 22.9629,-15.223529 2.70469,1.037886 2.27924,3.464202 -0.60746,3.464202 -4.91481,0 -10.76638,2.924415 -11.56161,5.778108 -0.44272,1.588708 -1.29416,4.088559 -1.89208,5.555225 -0.59792,1.466667 -2.92721,8.666667 -5.17621,16 -7.43739,24.251222 -9.51971,29.161827 -13.97827,32.964131 -4.02857,3.435608 -11.23077,4.951436 -13.36856,2.813645 z m 28,0 c -1.99659,-1.996584 -0.84012,-4.742706 1.7158,-4.074317 4.12147,1.077787 6.87627,-1.981777 8.20177,-9.109122 0.67452,-3.626886 2.35072,-8.994337 3.72491,-11.927671 1.37419,-2.933333 3.28271,-8.033333 4.24117,-11.333333 0.95847,-3.3 2.45536,-7.2 3.32643,-8.666666 0.87108,-1.466667 1.95612,-4.274969 2.41121,-6.240673 1.86712,-8.064757 16.44055,-17.726391 22.9629,-15.223529 2.70469,1.037886 2.27924,3.464202 -0.60746,3.464202 -4.91481,0 -10.76638,2.924415 -11.56161,5.778108 -0.44272,1.588708 -1.29416,4.088559 -1.89208,5.555225 -0.59792,1.466667 -2.92721,8.666667 -5.17621,16 -7.43739,24.251222 -9.51971,29.161827 -13.97827,32.964131 -4.02857,3.435608 -11.23077,4.951436 -13.36856,2.813645 z M 800.7338,94.121093 c -8.37336,-2.917562 -20.44578,-9.253362 -22.98513,-12.06295 -3.38547,-3.745765 -5.99545,-15.247717 -5.90323,-26.014885 0.1028,-11.997007 5.3104,-20.235214 18.91988,-29.930194 3.23935,-2.307613 3.08739,-2.341058 -8.03152,-1.767776 -6.23333,0.321386 -13.64764,1.079836 -16.47625,1.685447 l -5.14291,1.101111 2.80958,2.539984 c 3.19805,2.891176 3.88761,10.126682 0.96509,10.126682 -1.01447,0 -2.17236,-1.253796 -2.57311,-2.786213 -0.52754,-2.017361 -1.42856,-2.564057 -3.26513,-1.981152 -3.53261,1.121208 -8.0572,-3.899752 -6.18659,-6.865288 3.5762,-5.669464 26.32671,-9.578626 41.06926,-7.056832 8.45094,1.445582 10.1768,1.393522 12.94233,-0.390401 5.12044,-3.302963 15.92665,-4.660461 25.38767,-3.189248 13.14215,2.043644 15.68866,5.758347 6.47474,9.445026 -4.56158,1.825183 -7.66193,1.941472 -21.53729,0.807826 -20.56568,-1.680256 -22.32672,-0.87699 -29.38276,13.402347 -4.60156,9.312219 -4.87201,10.543123 -4.23632,19.280601 0.97008,13.333233 5.82963,20.791981 18.42905,28.286086 7.33454,4.362559 17.7918,-1.548902 21.11322,-11.935237 1.95276,-6.106397 1.92594,-6.444416 -0.61898,-7.806416 -2.05918,-1.102044 -3.21293,-0.923333 -5.10737,0.791107 -2.29211,2.074331 -2.62976,2.032265 -5.32551,-0.663487 -1.58302,-1.58303 -2.55068,-3.731845 -2.15032,-4.775145 0.97822,-2.54918 8.65318,-2.436708 13.94739,0.204391 9.36341,4.671089 8.84477,12.728925 -1.5312,23.78921 -6.30848,6.724524 -7.49491,7.429134 -12.29347,7.300982 -2.9211,-0.07801 -7.11112,-0.769021 -9.31112,-1.535576 z m 35,-70.304374 c 0.91667,-0.01 1.66554,-0.468206 1.66415,-1.018206 -0.001,-0.55 -4.35139,-0.953434 -9.66667,-0.896519 -14.39773,0.154168 -17.41561,0.91098 -7.66414,1.92198 4.76666,0.494192 9.86666,0.698825 11.33333,0.454741 1.46667,-0.244085 3.41667,-0.451983 4.33333,-0.461996 z m 643.8889,71.092902 c -1.9967,-1.996584 -0.8401,-4.742706 1.7157,-4.074317 4.1215,1.077787 6.8763,-1.981777 8.2019,-9.109122 0.6744,-3.626886 2.3507,-8.994337 3.7248,-11.927671 1.3743,-2.933333 3.2828,-8.033333 4.2412,-11.333333 0.9585,-3.3 2.4553,-7.2 3.3264,-8.666666 0.8711,-1.466667 1.9561,-4.274969 2.4112,-6.240673 1.8672,-8.064757 16.4407,-17.726391 22.9629,-15.223529 2.7047,1.037886 2.2792,3.464202 -0.6074,3.464202 -4.9148,0 -10.7664,2.924415 -11.5616,5.778108 -0.4427,1.588708 -1.2942,4.088559 -1.8922,5.555225 -0.5978,1.466667 -2.9272,8.666667 -5.1761,16 -7.4373,24.251222 -9.5197,29.161827 -13.9783,32.964131 -4.0285,3.435608 -11.2308,4.951436 -13.3685,2.813645 z M 604.62218,50.131845 c 0.9198,-7.165226 3.28048,-10.333333 7.6998,-10.333333 3.54044,0 2.99185,3.89664 -1.55881,11.072292 -5.34722,8.431685 -7.28824,8.198118 -6.14099,-0.738959 z"
     id="path3733"
     inkscape:connector-curvature="0" />
</svg>
