<?xml version="1.0" encoding="UTF-8"?>
<svg xmlns="http://www.w3.org/2000/svg" width="500" height="6000">
   <g transform="translate(200, 5310)">
      <line x1="0"
            y1="0"
            x2="0"
            y2="-5010"
            stroke="ForestGreen"
            stroke-width="3"/>
      <!--The number of years is this:501-->
      <text x="0" y="-0" text-align="center" stroke="black">1260</text>
      <text x="0" y="-200" text-align="center" stroke="black">1280</text>
      <text x="0" y="-400" text-align="center" stroke="black">1300</text>
      <text x="0" y="-600" text-align="center" stroke="black">1320</text>
      <text x="0" y="-800" text-align="center" stroke="black">1340</text>
      <text x="0" y="-1000" text-align="center" stroke="black">1360</text>
      <text x="0" y="-1200" text-align="center" stroke="black">1380</text>
      <text x="0" y="-1400" text-align="center" stroke="black">1400</text>
      <text x="0" y="-1600" text-align="center" stroke="black">1420</text>
      <text x="0" y="-1800" text-align="center" stroke="black">1440</text>
      <text x="0" y="-2000" text-align="center" stroke="black">1460</text>
      <text x="0" y="-2200" text-align="center" stroke="black">1480</text>
      <text x="0" y="-2400" text-align="center" stroke="black">1500</text>
      <text x="0" y="-2600" text-align="center" stroke="black">1520</text>
      <text x="0" y="-2800" text-align="center" stroke="black">1540</text>
      <text x="0" y="-3000" text-align="center" stroke="black">1560</text>
      <text x="0" y="-3200" text-align="center" stroke="black">1580</text>
      <text x="0" y="-3400" text-align="center" stroke="black">1600</text>
      <text x="0" y="-3600" text-align="center" stroke="black">1620</text>
      <text x="0" y="-3800" text-align="center" stroke="black">1640</text>
      <text x="0" y="-4000" text-align="center" stroke="black">1660</text>
      <text x="0" y="-4200" text-align="center" stroke="black">1680</text>
      <text x="0" y="-4400" text-align="center" stroke="black">1700</text>
      <text x="0" y="-4600" text-align="center" stroke="black">1720</text>
      <text x="0" y="-4800" text-align="center" stroke="black">1740</text>
      <text x="0" y="-5000" text-align="center" stroke="black">1760</text>
      <circle r="5" cx="0" cy="-90" stroke="black" fill=""/>
      <text/>
      <circle r="5" cx="0" cy="-230" stroke="black" fill=""/>
      <text/>
      <circle r="5" cx="0" cy="-270" stroke="black" fill=""/>
      <text/>
      <circle r="5" cx="0" cy="-2490" stroke="black" fill=""/>
      <text/>
      <circle r="5" cx="0" cy="-2740" stroke="black" fill=""/>
      <text/>
      <circle r="5" cx="0" cy="-2760" stroke="black" fill=""/>
      <text/>
      <circle r="5" cx="0" cy="-2780" stroke="black" fill=""/>
      <text/>
      <ellipse rx="8"
               ry="10"
               cx="0"
               cy="-2790"
               stroke="black"
               fill="pink"
               fill-opacity="0.5"/>
      <circle r="5" cx="0" cy="-2810" stroke="black" fill=""/>
      <text/>
      <circle r="5" cx="0" cy="-2830" stroke="black" fill=""/>
      <text/>
      <ellipse rx="8"
               ry="60"
               cx="0"
               cy="-3010"
               stroke="black"
               fill="pink"
               fill-opacity="0.5"/>
      <ellipse rx="8"
               ry="600"
               cx="0"
               cy="-4200"
               stroke="black"
               fill="pink"
               fill-opacity="0.5"/>
      <circle r="5" cx="0" cy="-4590" stroke="black" fill=""/>
      <text/>
      <ellipse rx="8"
               ry="220"
               cx="0"
               cy="-4790"
               stroke="black"
               fill="pink"
               fill-opacity="0.5"/>
   </g>
</svg>
