<?xml version="1.0" encoding="UTF-8" standalone="no"?>
<svg xmlns="http://www.w3.org/2000/svg" version="1.1" id="svg22" width="293.33334"
   height="193.33333" viewBox="0 0 293.33334 193.33333">
   <path style="fill:#000000;stroke-width:1.46783638"
      d="m 174.78083,165.18278 c -22.20076,-1.10537 -44.46575,-3.66356 -51.70905,-5.94124 -7.42831,-2.33585 -11.14033,-2.47251 -46.053366,-1.69533 -31.503866,0.70128 -40.58935,0.46818 -53.324953,-1.36808 -15.5303474,-2.23923 -22.74325925,-5.38206 -20.1864139,-8.79567 2.250803,-3.00501 14.4442489,-6.46379 29.8818589,-8.47624 27.604261,-3.59848 39.845369,-3.89174 64.636306,-1.54848 30.787818,2.91011 33.395208,3.21005 42.370458,4.8742 4.19563,0.77795 14.73942,1.50879 23.43066,1.62411 15.26007,0.20248 16.19029,0.0429 27.11358,-4.65123 14.53003,-6.2441 24.27406,-15.13507 21.99882,-20.07292 -0.84721,-1.83868 -4.25074,-4.66256 -7.56339,-6.27529 -7.09361,-3.45344 -6.51237,-4.21638 6.61877,-8.6878 l 9.64803,-3.28536 -16.52106,0.79044 c -14.57349,0.69726 -16.64483,0.5244 -17.57065,-1.46636 -0.57726,-1.241248 -0.77793,-2.480804 -0.44596,-2.75457 1.14553,-0.944638 22.08372,-1.885586 23.11026,-1.038558 1.77617,1.465574 15.97266,0.170791 20.82402,-1.899242 6.08307,-2.595587 4.97411,-3.255026 -2.97834,-1.771091 -8.04523,1.501248 -37.10833,1.911987 -43.58413,0.615961 -2.66625,-0.533605 -7.0292,-2.020105 -9.69545,-3.303334 -2.66625,-1.283229 -7.52268,-2.725311 -10.79208,-3.204625 -3.2694,-0.479315 -7.60619,-1.981842 -9.63733,-3.33895 -3.20951,-2.144432 -3.44905,-2.909226 -1.82972,-5.841785 1.02481,-1.855873 3.36193,-3.766789 5.19359,-4.24648 4.93838,-1.293291 4.04466,-2.951779 -2.1035,-3.903485 -2.98861,-0.462621 -6.72025,-2.014023 -8.29252,-3.447556 -4.54747,-4.146193 0.049,-8.6386 11.68523,-11.420612 13.93788,-3.332308 16.58428,-4.349989 16.58428,-6.377556 0,-2.266945 9.85519,-7.972748 18.58294,-10.758844 25.18608,-8.039986 59.40833,-8.017318 79.64322,0.05276 15.77373,6.290874 16.88991,13.127036 3.12698,19.151488 l -7.2739,3.183999 3.32986,3.716276 c 4.43381,4.948328 2.08296,9.322002 -7.08487,13.181194 -3.71771,1.564969 -8.4586,4.511581 -10.53531,6.548028 -2.07671,2.036448 -5.93659,4.441132 -8.5775,5.343745 -2.64092,0.902612 -5.94462,3.080437 -7.34155,4.839609 -1.39694,1.759168 -3.54506,3.198491 -4.77361,3.198491 -1.22853,0 -5.20149,2.045915 -8.82879,4.546477 -3.8872,2.67976 -9.25774,4.91767 -13.08013,5.45053 -7.62967,1.06361 -8.20926,2.42353 -1.94532,4.56441 5.57797,1.90644 9.83527,7.75038 8.54104,11.72419 -2.18026,6.69433 -17.48821,16.37451 -33.27967,21.04482 l -3.23181,0.9558 3.23181,1.09651 c 9.49809,3.22254 69.1336,0.0193 88.74575,-4.7668 7.92058,-1.93294 10.96754,-1.68351 8.10098,0.66316 -1.46442,1.19882 -8.90982,2.9658 -22.83454,5.4192 -3.73074,0.65732 -15.00171,4.50833 -25.04656,8.5578 -13.30993,5.36574 -21.33128,7.72362 -29.57473,8.69354 -11.00806,1.29519 -13.82405,1.34112 -30.70224,0.50075 z M 101.25704,153.6407 c 1.33312,-0.20463 -1.575517,-1.47713 -6.46363,-2.8278 -4.888136,-1.35067 -10.817655,-3.57132 -13.176724,-4.9348 -2.35907,-1.36347 -5.497302,-2.47904 -6.973834,-2.47904 -1.476549,0 -4.054016,-0.60472 -5.727712,-1.34381 -3.209565,-1.41734 -24.32723,-1.8617 -33.910327,-0.71356 -18.529121,2.21996 -29.0355739,5.55574 -26.8190407,8.51501 1.0698882,1.4284 18.5678517,4.09003 30.0508557,4.57108 8.814255,0.36924 59.620972,-0.26531 63.020412,-0.78708 z M 206.695,98.458082 c -1.99969,-0.317804 -5.2719,-0.317804 -7.27158,0 -1.99968,0.317804 -0.36359,0.577826 3.63579,0.577826 3.99937,0 5.63548,-0.260022 3.63579,-0.577826 z m 19.56934,-7.906921 c 4.12341,-0.466344 7.49711,-1.44382 7.49711,-2.172166 0,-0.858756 -4.68626,-0.937263 -13.33124,-0.223334 -7.33217,0.605516 -19.1485,0.986243 -26.25849,0.846062 -8.91426,-0.175755 -12.17481,0.15045 -10.5034,1.050814 2.72271,1.466671 31.09945,1.798847 42.59602,0.498624 z m -4.97388,-5.661912 c 2.34979,-1.938881 -11.9593,-3.297322 -23.5789,-2.238478 -13.61765,1.240917 -17.43671,2.120433 -16.22603,3.736789 1.28373,1.713909 37.56713,0.348155 39.80493,-1.498311 z m 25.62321,-0.05212 3.8148,-2.561938 -6.77235,1.483084 c -3.72481,0.815696 -6.40872,1.968568 -5.96428,2.561938 1.35237,1.805556 4.90405,1.215158 8.92183,-1.483084 z m -70.27832,-0.725754 c 7.24941,-4.189744 31.30061,-5.238514 47.33708,-2.064166 6.67678,1.321642 9.48969,1.225268 17.03013,-0.58347 4.96779,-1.191632 8.59679,-2.748095 8.06447,-3.458808 -0.53234,-0.710714 -3.87687,-2.4519 -7.43231,-3.869303 -5.91306,-2.357303 -9.17746,-2.521187 -38.27505,-1.921529 -37.13209,0.765236 -40.17497,1.064228 -45.54587,4.475313 -4.79764,3.047009 -3.52564,4.657835 5.85732,7.417524 8.01479,2.357279 8.89265,2.357579 12.96423,0.0044 z m 92.36892,-15.639944 c 0.82871,-5.89006 -4.34518,-7.130393 -15.93652,-3.820452 -5.29304,1.511441 -10.71157,2.748081 -12.04115,2.748081 -4.48584,0 -2.45986,2.176504 4.81755,5.175448 3.97923,1.639804 7.67215,3.565115 8.20644,4.278469 0.56939,0.760163 3.76154,0.03068 7.71217,-1.762436 4.91616,-2.231328 6.87626,-4.022958 7.24151,-6.619117 z m -63.08829,0.641601 c -2.42814,-0.304232 -6.79109,-0.310356 -9.69544,-0.0136 -2.90434,0.296748 -0.91769,0.545666 4.41481,0.55315 5.33249,0.0075 7.70879,-0.235311 5.28063,-0.539543 z m -6.08859,-2.871794 13.73522,-0.889055 -9.48717,-1.092677 c -12.12507,-1.396498 -21.79792,-4.221107 -26.23582,-7.661227 -2.83252,-2.195681 -4.68319,-2.532829 -9.74145,-1.774663 -8.51222,1.27587 -18.36391,5.533234 -18.36391,7.935876 0,1.085096 0.18179,1.981935 0.40397,1.992976 0.2222,0.01107 3.31262,0.923779 6.86761,2.028306 4.68842,1.456673 9.57028,1.780449 17.77499,1.178874 6.22124,-0.456146 17.49219,-1.22943 25.04656,-1.71841 z m 32.9174,0.103146 c 0.43449,-0.580074 -1.88588,-0.836589 -5.15635,-0.570033 -8.9427,0.728867 -10.00744,1.401297 -2.40588,1.519451 3.72474,0.05789 7.12775,-0.369344 7.56223,-0.949418 z m 19.54248,-4.989212 c 5.73109,-1.39191 6.07181,-1.700772 3.2318,-2.929705 -4.92103,-2.129444 -24.86417,-5.542912 -37.24262,-6.374447 -13.58256,-0.912428 -37.83995,0.523818 -37.83995,2.240446 0,1.813956 10.09124,5.000509 22.39599,7.072078 12.85502,2.16421 40.52859,2.159522 49.45478,-0.0084 z m 15.96709,-6.412174 c -0.18872,-1.859794 0.56001,-2.280192 3.08908,-1.734476 3.98326,0.859486 8.51709,-0.913922 9.89137,-3.869007 3.76746,-8.100985 -19.83203,-15.273788 -50.2528,-15.273788 -15.99125,0 -38.48565,4.99632 -46.62734,10.356583 -8.33227,5.485735 -7.21968,6.607677 5.3733,5.418408 19.26514,-1.819384 53.67382,1.326973 66.65617,6.095092 7.24326,2.660274 12.19885,2.245792 11.87022,-0.992816 z"
      id="path32"/>
</svg>
